<svg id="Layer_1" data-name="Layer 1" xmlns="http://www.w3.org/2000/svg" viewBox="0 0 187.87 164.72"><defs><style>.cls-1{fill:#fff;}</style></defs><title>dataEXC_logo_WHITE</title><rect class="cls-1" x="36.8" y="130.94" width="77.46" height="1.83"/><path class="cls-1" d="M32.34,63.9V32h7.57q5.24,0,7.78,1.82a11,11,0,0,1,3.82,5.51A26.79,26.79,0,0,1,52.78,48a23.89,23.89,0,0,1-1.35,8.39A12.37,12.37,0,0,1,47.61,62c-1.64,1.3-4.21,1.94-7.7,1.94Zm4.16-3.52h2.77q4.21,0,6-1.5a8.2,8.2,0,0,0,2.57-4.17,27.49,27.49,0,0,0,.77-7.37,21.62,21.62,0,0,0-.9-7.07,8.36,8.36,0,0,0-2.59-3.8c-1.12-.88-3-1.33-5.53-1.33H36.5Z"/><path class="cls-1" d="M69.54,63.9h-4L75.4,32h4.21l9.9,32H85.13l-2.19-7H71.71Zm3.15-10.21H82L78.16,41.57l-.89-3.25-.81,3.25Z"/><path class="cls-1" d="M108.62,63.9V35.47H99.05V32h23.31v3.52h-9.58V63.9Z"/><path class="cls-1" d="M136,63.9h-4L141.81,32H146l9.9,32h-4.38l-2.18-7H138.12Zm3.16-10.21h9.32l-3.85-12.12-.9-3.25-.81,3.25Z"/><path class="cls-1" d="M49.21,119.16v3.52H32v-32h17v3.22H36.11v10.85H47.62V108H36.11v11.18Z"/><path class="cls-1" d="M69.28,122.68H65l9.34-16.62L65.85,90.72h4.72l6.13,11.07,6.23-11.07h4.34l-8.42,15,9.41,17H83.47l-7-12.73Z"/><path class="cls-1" d="M120.64,122.31a18.64,18.64,0,0,1-6.42,1.33,12.65,12.65,0,0,1-6.9-2,13.15,13.15,0,0,1-4.9-6,23.84,23.84,0,0,1,0-17.88,13.18,13.18,0,0,1,4.88-6,12.57,12.57,0,0,1,6.94-2,18.64,18.64,0,0,1,6.42,1.33v3.78A13,13,0,0,0,114.05,93a7,7,0,0,0-4.52,1.69,11.69,11.69,0,0,0-3.3,5,20.58,20.58,0,0,0,0,14.29,11.68,11.68,0,0,0,3.32,4.93,6.86,6.86,0,0,0,4.46,1.64,13.21,13.21,0,0,0,6.59-1.91Z"/><polygon class="cls-1" points="35.89 74.03 35.89 85.21 37.71 85.21 37.71 75.86 113.98 75.86 113.98 85.21 115.81 85.21 115.81 74.03 35.89 74.03"/></svg>