<?xml version="1.0" encoding="utf-8"?>
<!-- Generator: Adobe Illustrator 23.0.3, SVG Export Plug-In . SVG Version: 6.00 Build 0)  -->
<svg version="1.1" id="Layer_1" xmlns="http://www.w3.org/2000/svg" xmlns:xlink="http://www.w3.org/1999/xlink" x="0px" y="0px"
	 viewBox="0 0 187.87 164.72" style="enable-background:new 0 0 187.87 164.72;" xml:space="preserve">
<style type="text/css">
	.st0{fill:#0052CC;}
	.st1{fill:#FFFFFF;}
</style>
<g>
	<rect x="36.8" y="130.94" class="st0" width="77.46" height="1.83"/>
	<g>
		<path class="st0" d="M32.34,63.9V31.95h7.58c3.49,0,6.08,0.61,7.77,1.82c1.69,1.21,2.97,3.05,3.82,5.51
			c0.85,2.46,1.28,5.37,1.28,8.73c0,3.18-0.45,5.98-1.35,8.39c-0.9,2.41-2.17,4.26-3.82,5.56c-1.65,1.3-4.21,1.95-7.7,1.95H32.34z
			 M36.5,60.38h2.77c2.81,0,4.81-0.5,6.01-1.5c1.2-1,2.06-2.39,2.57-4.17c0.51-1.78,0.77-4.23,0.77-7.37c0-3.06-0.3-5.42-0.9-7.07
			c-0.6-1.65-1.47-2.92-2.59-3.8c-1.12-0.89-2.97-1.33-5.53-1.33h-3.1V60.38z"/>
		<path class="st0" d="M69.54,63.9h-3.99l9.85-31.95h4.22l9.9,31.95h-4.38l-2.18-7.02H71.71L69.54,63.9z M72.69,53.69h9.32
			l-3.85-12.12l-0.89-3.24l-0.81,3.24L72.69,53.69z"/>
		<path class="st0" d="M108.62,63.9V35.47h-9.57v-3.52h23.31v3.52h-9.57V63.9H108.62z"/>
		<path class="st0" d="M135.95,63.9h-3.99l9.85-31.95h4.22l9.9,31.95h-4.38l-2.18-7.02h-11.23L135.95,63.9z M139.11,53.69h9.32
			l-3.85-12.12l-0.89-3.24l-0.81,3.24L139.11,53.69z"/>
	</g>
	<path class="st0" d="M49.21,119.16v3.52H31.95V90.72H48.9v3.21H36.11v10.85h11.51v3.19H36.11v11.18H49.21z"/>
	<path class="st0" d="M69.28,122.68h-4.32l9.35-16.62l-8.46-15.34h4.73l6.13,11.07l6.23-11.07h4.35l-8.42,14.95l9.41,17h-4.8
		l-7.02-12.73L69.28,122.68z"/>
	<path class="st0" d="M120.64,122.31c-2.39,0.89-4.53,1.34-6.42,1.34c-2.5,0-4.8-0.67-6.9-2.01c-2.1-1.34-3.73-3.33-4.9-5.97
		s-1.75-5.63-1.75-8.97c0-3.31,0.58-6.28,1.73-8.91c1.15-2.64,2.78-4.63,4.88-5.99c2.1-1.36,4.41-2.04,6.94-2.04
		c1.89,0,4.04,0.44,6.42,1.33v3.79c-2.21-1.28-4.41-1.93-6.59-1.93c-1.65,0-3.15,0.56-4.52,1.69c-1.37,1.13-2.47,2.78-3.3,4.96
		c-0.84,2.18-1.26,4.54-1.26,7.1c0,2.6,0.43,4.99,1.3,7.19c0.86,2.2,1.97,3.84,3.31,4.93c1.34,1.09,2.83,1.64,4.47,1.64
		c2.17,0,4.36-0.64,6.59-1.91V122.31z"/>
	<polygon class="st0" points="35.89,74.03 35.89,85.21 37.71,85.21 37.71,75.86 113.98,75.86 113.98,85.21 115.81,85.21 
		115.81,74.03 	"/>
</g>
</svg>
